<svg width="620" height="300" viewBox="0 0 620 300" fill="none" xmlns="http://www.w3.org/2000/svg">
  <rect width="620" height="300" rx="18" fill="#0D1117"/>
  <rect x="12" y="12" width="596" height="276" rx="14" stroke="#30363D"/>
  <text x="34" y="48" fill="#F0F6FC" font-family="system-ui, sans-serif" font-size="28" font-weight="700">Diffly</text>
  <text x="34" y="74" fill="#8B949E" font-family="system-ui, sans-serif" font-size="15">desktop diff tool for files and folders</text>
  <rect x="34" y="100" width="250" height="150" rx="10" fill="#161B22" stroke="#30363D"/>
  <rect x="336" y="100" width="250" height="150" rx="10" fill="#161B22" stroke="#30363D"/>
  <rect x="296" y="100" width="28" height="150" rx="8" fill="#0D1117"/>
  <path d="M58 126H146" stroke="#30363D" stroke-width="2"/>
  <path d="M58 154H258" stroke="#30363D" stroke-width="2"/>
  <path d="M58 182H194" stroke="#30363D" stroke-width="2"/>
  <path d="M58 210H246" stroke="#30363D" stroke-width="2"/>
  <path d="M360 126H504" stroke="#30363D" stroke-width="2"/>
  <path d="M360 154H562" stroke="#30363D" stroke-width="2"/>
  <path d="M360 182H518" stroke="#30363D" stroke-width="2"/>
  <path d="M360 210H552" stroke="#30363D" stroke-width="2"/>
  <rect x="50" y="145" width="216" height="18" rx="9" fill="#58A6FF" fill-opacity="0.22"/>
  <rect x="352" y="173" width="218" height="18" rx="9" fill="#3FB950" fill-opacity="0.20"/>
  <path d="M304 142V208" stroke="#30363D" stroke-width="2"/>
  <path d="M305 158L316 149V167L305 158Z" fill="#F78166"/>
  <path d="M315 191L304 182V200L315 191Z" fill="#3FB950"/>
  <text x="34" y="270" fill="#8B949E" font-family="system-ui, sans-serif" font-size="14">Svelte | TypeScript | Tauri</text>
</svg>
